<svg xmlns="http://www.w3.org/2000/svg" xmlns:xlink="http://www.w3.org/1999/xlink" contentStyleType="text/css" data-diagram-type="ACTIVITY" height="2493px" preserveAspectRatio="none" style="width:903px;height:2493px;background:#FFFFFF;" version="1.1" viewBox="0 0 903 2493" width="903px" zoomAndPan="magnify"><title>Fluxo de Monitoramento ATESTMED - Gest&#227;o P&#250;blica</title><defs/><g><g class="title" data-source-line="18"><text fill="#000000" font-family="Arial" font-size="14" font-weight="bold" lengthAdjust="spacing" textLength="357.0273" x="271.4874" y="33.1318">Fluxo de Monitoramento ATESTMED - Gest&#227;o P&#250;blica</text></g><ellipse cx="395.5132" cy="57.0986" fill="#000000" rx="10" ry="10" style="stroke:#222222;stroke-width:1;"/><rect fill="none" height="140.2959" style="stroke:#000000;stroke-width:1.5;" width="289.2979" x="250.8643" y="77.0986"/><path d="M340.8799,77.0986 L340.8799,88.4971 L330.8799,98.4971 L250.8643,98.4971" fill="none" style="stroke:#000000;stroke-width:1.5;"/><text fill="#000000" font-family="Arial" font-size="16" lengthAdjust="spacing" textLength="80.0156" x="253.8643" y="93.1064">Portal PMF</text><rect fill="#FFFFFF" height="34.9487" rx="12.5" ry="12.5" style="stroke:#000000;stroke-width:0.5;" width="269.2979" x="260.8643" y="115.4971"/><text fill="#000000" font-family="Arial" font-size="13" lengthAdjust="spacing" textLength="249.2979" x="270.8643" y="137.6909">Aguardar atualiza&#231;&#227;o do DB no Portal PMF</text><rect fill="#FFFFFF" height="34.9487" rx="12.5" ry="12.5" style="stroke:#000000;stroke-width:0.5;" width="225.9243" x="282.551" y="170.4458"/><text fill="#000000" font-family="Arial" font-size="13" lengthAdjust="spacing" textLength="205.9243" x="292.551" y="192.6396">Extra&#231;&#227;o das tarefas no Portal PMF</text><rect fill="none" height="332.9312" style="stroke:#000000;stroke-width:1.5;" width="493.7686" x="148.6289" y="227.3945"/><path d="M383.5898,227.3945 L383.5898,238.793 L373.5898,248.793 L148.6289,248.793" fill="none" style="stroke:#000000;stroke-width:1.5;"/><text fill="#000000" font-family="Arial" font-size="16" lengthAdjust="spacing" textLength="224.9609" x="151.6289" y="243.4023">CGACDC (Coordena&#231;&#227;o-Geral)</text><rect fill="#FFFFFF" height="34.9487" rx="12.5" ry="12.5" style="stroke:#000000;stroke-width:0.5;" width="249.0869" x="270.9697" y="265.793"/><text fill="#000000" font-family="Arial" font-size="13" lengthAdjust="spacing" textLength="229.0869" x="280.9697" y="287.9868">Processa dados de uso e conformidade</text><rect fill="#FFFFFF" height="34.9487" rx="12.5" ry="12.5" style="stroke:#000000;stroke-width:0.5;" width="436.1523" x="177.437" y="320.7417"/><text fill="#000000" font-family="Arial" font-size="13" lengthAdjust="spacing" textLength="174.1289" x="187.437" y="342.9355">Aplica crit&#233;rios de risco e gera</text><text fill="#000000" font-family="Arial" font-size="13" font-weight="bold" lengthAdjust="spacing" textLength="114.1372" x="365.1777" y="342.9355">Relat&#243;rio de Risco</text><text fill="#000000" font-family="Arial" font-size="13" lengthAdjust="spacing" textLength="120.6626" x="482.9268" y="342.9355">(Atestmed Defender)</text><rect fill="#FFFFFF" height="34.9487" rx="12.5" ry="12.5" style="stroke:#000000;stroke-width:0.5;" width="399.3423" x="195.842" y="375.6904"/><text fill="#000000" font-family="Arial" font-size="13" lengthAdjust="spacing" textLength="379.3423" x="205.842" y="397.8843">Elege peritos com potencial mau uso (Top N / Score / Evid&#234;ncias)</text><rect fill="#FFFFFF" height="34.9487" rx="12.5" ry="12.5" style="stroke:#000000;stroke-width:0.5;" width="473.7686" x="158.6289" y="458.4282"/><text fill="#000000" font-family="Arial" font-size="13" lengthAdjust="spacing" textLength="453.7686" x="168.6289" y="480.6221">Autuar/abrir processos no SEI (um por perito) com Relat&#243;rio de Risco anexado</text><rect fill="#FFFFFF" height="34.9487" rx="12.5" ry="12.5" style="stroke:#000000;stroke-width:0.5;" width="330.686" x="230.1702" y="513.377"/><text fill="#000000" font-family="Arial" font-size="13" lengthAdjust="spacing" textLength="310.686" x="240.1702" y="535.5708">Enviar n&#250;meros de processo &#224;s CRPMF competentes</text><rect fill="none" height="140.2959" style="stroke:#000000;stroke-width:1.5;" width="383.9795" x="203.5234" y="570.3257"/><path d="M449.1797,570.3257 L449.1797,581.7241 L439.1797,591.7241 L203.5234,591.7241" fill="none" style="stroke:#000000;stroke-width:1.5;"/><text fill="#000000" font-family="Arial" font-size="16" lengthAdjust="spacing" textLength="235.6563" x="206.5234" y="586.3335">CRPMF (Coordena&#231;&#227;o Regional)</text><rect fill="#FFFFFF" height="34.9487" rx="12.5" ry="12.5" style="stroke:#000000;stroke-width:0.5;" width="363.9795" x="213.5234" y="608.7241"/><text fill="#000000" font-family="Arial" font-size="13" lengthAdjust="spacing" textLength="343.9795" x="223.5234" y="630.918">Receber n&#250;meros de processo dos peritos sob sua atua&#231;&#227;o</text><rect fill="#FFFFFF" height="34.9487" rx="12.5" ry="12.5" style="stroke:#000000;stroke-width:0.5;" width="245.437" x="272.7947" y="663.6729"/><text fill="#000000" font-family="Arial" font-size="13" lengthAdjust="spacing" textLength="225.437" x="282.7947" y="685.8667">Realizar an&#225;lise preliminar dos ind&#237;cios</text><rect fill="none" height="232.2446" style="stroke:#000000;stroke-width:1.5;" width="873.4088" x="18.5934" y="749.02"/><path d="M253.5543,749.02 L253.5543,760.4185 L243.5543,770.4185 L18.5934,770.4185" fill="none" style="stroke:#000000;stroke-width:1.5;"/><text fill="#000000" font-family="Arial" font-size="16" lengthAdjust="spacing" textLength="224.9609" x="21.5934" y="765.0278">CGACDC (Coordena&#231;&#227;o-Geral)</text><rect fill="#FFFFFF" height="34.9487" rx="12.5" ry="12.5" style="stroke:#000000;stroke-width:0.5;" width="366.8042" x="212.1111" y="790.4185"/><text fill="#000000" font-family="Arial" font-size="13" lengthAdjust="spacing" textLength="346.8042" x="222.1111" y="812.6123">Verificar ind&#237;cios com base na an&#225;lise preliminar da CRPMF</text><polygon fill="#FFFFFF" points="283.604,845.3672,507.4224,845.3672,519.4224,857.3672,507.4224,869.3672,283.604,869.3672,271.604,857.3672,283.604,845.3672" style="stroke:#000000;stroke-width:0.5;"/><text fill="#000000" font-family="Arial" font-size="13" lengthAdjust="spacing" textLength="223.8184" x="283.604" y="862.0867">"Ind&#237;cios confirmados pela CGACDC?"</text><text fill="#000000" font-family="Arial" font-size="16" lengthAdjust="spacing" textLength="29.3516" x="242.2524" y="853.9766">N&#227;o</text><text fill="#000000" font-family="Arial" font-size="16" lengthAdjust="spacing" textLength="27.5547" x="519.4224" y="853.9766">Sim</text><rect fill="#FFFFFF" height="34.9487" rx="12.5" ry="12.5" style="stroke:#000000;stroke-width:0.5;" width="283.7451" x="38.1868" y="879.3672"/><text fill="#000000" font-family="Arial" font-size="13" lengthAdjust="spacing" textLength="263.7451" x="48.1868" y="901.561">Determinar arquivamento do processo no SEI</text><ellipse cx="180.0593" cy="945.3159" fill="none" rx="11" ry="11" style="stroke:#222222;stroke-width:1;"/><ellipse cx="180.0593" cy="945.3159" fill="#222222" rx="6" ry="6" style="stroke:#222222;stroke-width:1;"/><rect fill="#FFFFFF" height="34.9487" rx="12.5" ry="12.5" style="stroke:#000000;stroke-width:0.5;" width="538.0703" x="341.9319" y="879.3672"/><text fill="#000000" font-family="Arial" font-size="13" lengthAdjust="spacing" textLength="39.0063" x="351.9319" y="901.561">Retirar</text><text fill="#000000" font-family="Arial" font-size="13" font-weight="bold" lengthAdjust="spacing" textLength="103.3208" x="394.55" y="901.561">preventivamente</text><text fill="#000000" font-family="Arial" font-size="13" lengthAdjust="spacing" textLength="368.5195" x="501.4827" y="901.561">a compet&#234;ncia ATESTMED do perito (at&#233; conclus&#227;o da an&#225;lise)</text><rect fill="#FFFFFF" height="34.9487" rx="12.5" ry="12.5" style="stroke:#000000;stroke-width:0.5;" width="480.2749" x="370.8296" y="934.3159"/><text fill="#000000" font-family="Arial" font-size="13" lengthAdjust="spacing" textLength="460.2749" x="380.8296" y="956.5098">Elaborar despacho para a DRPMF comunicar o perito a apresentar justificativas</text><rect fill="none" height="88.3472" style="stroke:#000000;stroke-width:1.5;" width="427.9941" x="181.5161" y="991.2646"/><path d="M248.3989,991.2646 L248.3989,1002.6631 L238.3989,1012.6631 L181.5161,1012.6631" fill="none" style="stroke:#000000;stroke-width:1.5;"/><text fill="#000000" font-family="Arial" font-size="16" lengthAdjust="spacing" textLength="56.8828" x="184.5161" y="1007.2725">DRPMF</text><rect fill="#FFFFFF" height="34.9487" rx="12.5" ry="12.5" style="stroke:#000000;stroke-width:0.5;" width="407.9941" x="191.5161" y="1032.6631"/><text fill="#000000" font-family="Arial" font-size="13" lengthAdjust="spacing" textLength="387.9941" x="201.5161" y="1054.8569">Comunicar formalmente o perito para apresentar justificativas (SEI)</text><rect fill="none" height="88.3472" style="stroke:#000000;stroke-width:1.5;" width="219.918" x="285.5542" y="1118.0103"/><path d="M393.3745,1118.0103 L393.3745,1129.4087 L383.3745,1139.4087 L285.5542,1139.4087" fill="none" style="stroke:#000000;stroke-width:1.5;"/><text fill="#000000" font-family="Arial" font-size="16" lengthAdjust="spacing" textLength="97.8203" x="288.5542" y="1134.0181">Perito M&#233;dico</text><rect fill="#FFFFFF" height="34.9487" rx="12.5" ry="12.5" style="stroke:#000000;stroke-width:0.5;" width="199.918" x="295.5542" y="1159.4087"/><text fill="#000000" font-family="Arial" font-size="13" lengthAdjust="spacing" textLength="179.918" x="305.5542" y="1181.6025">Apresentar justificativas no SEI</text><rect fill="none" height="219.2959" style="stroke:#000000;stroke-width:1.5;" width="853.9298" x="11" y="1244.7559"/><path d="M245.9609,1244.7559 L245.9609,1256.1543 L235.9609,1266.1543 L11,1266.1543" fill="none" style="stroke:#000000;stroke-width:1.5;"/><text fill="#000000" font-family="Arial" font-size="16" lengthAdjust="spacing" textLength="224.9609" x="14" y="1260.7637">CGACDC (Coordena&#231;&#227;o-Geral)</text><rect fill="#FFFFFF" height="34.9487" rx="12.5" ry="12.5" style="stroke:#000000;stroke-width:0.5;" width="312.6777" x="239.1743" y="1286.1543"/><text fill="#000000" font-family="Arial" font-size="13" lengthAdjust="spacing" textLength="292.6777" x="249.1743" y="1308.3481">Analisar defesa e evid&#234;ncias de uso da ferramenta</text><polygon fill="#FFFFFF" points="273.8445,1341.103,517.1819,1341.103,529.1819,1353.103,517.1819,1365.103,273.8445,1365.103,261.8445,1353.103,273.8445,1341.103" style="stroke:#000000;stroke-width:0.5;"/><text fill="#000000" font-family="Arial" font-size="13" lengthAdjust="spacing" textLength="243.3374" x="273.8445" y="1357.8225">"Resposta compat&#237;vel com a ferramenta?"</text><text fill="#000000" font-family="Arial" font-size="16" lengthAdjust="spacing" textLength="27.5547" x="234.2898" y="1349.7124">Sim</text><text fill="#000000" font-family="Arial" font-size="16" lengthAdjust="spacing" textLength="29.3516" x="529.1819" y="1349.7124">N&#227;o</text><rect fill="#FFFFFF" height="34.9487" rx="12.5" ry="12.5" style="stroke:#000000;stroke-width:0.5;" width="312.6714" x="30.5934" y="1375.103"/><text fill="#000000" font-family="Arial" font-size="13" lengthAdjust="spacing" textLength="292.6714" x="40.5934" y="1397.2969">Restabelecimento da compet&#234;ncia e arquivamento</text><ellipse cx="186.9291" cy="1441.0518" fill="none" rx="11" ry="11" style="stroke:#222222;stroke-width:1;"/><ellipse cx="186.9291" cy="1441.0518" fill="#222222" rx="6" ry="6" style="stroke:#222222;stroke-width:1;"/><rect fill="#FFFFFF" height="34.9487" rx="12.5" ry="12.5" style="stroke:#000000;stroke-width:0.5;" width="481.665" x="363.2648" y="1375.103"/><text fill="#000000" font-family="Arial" font-size="13" lengthAdjust="spacing" textLength="132.209" x="373.2648" y="1397.2969">Solicitar &#224; DRPMF que</text><text fill="#000000" font-family="Arial" font-size="13" font-weight="bold" lengthAdjust="spacing" textLength="124.9727" x="509.0856" y="1397.2969">oriente formalmente</text><text fill="#000000" font-family="Arial" font-size="13" lengthAdjust="spacing" textLength="197.2598" x="637.67" y="1397.2969">(boas pr&#225;ticas/uso correto) no SEI</text><rect fill="none" height="88.3472" style="stroke:#000000;stroke-width:1.5;" width="243.0171" x="274.0046" y="1474.0518"/><path d="M340.8875,1474.0518 L340.8875,1485.4502 L330.8875,1495.4502 L274.0046,1495.4502" fill="none" style="stroke:#000000;stroke-width:1.5;"/><text fill="#000000" font-family="Arial" font-size="16" lengthAdjust="spacing" textLength="56.8828" x="277.0046" y="1490.0596">DRPMF</text><rect fill="#FFFFFF" height="34.9487" rx="12.5" ry="12.5" style="stroke:#000000;stroke-width:0.5;" width="223.0171" x="284.0046" y="1515.4502"/><text fill="#000000" font-family="Arial" font-size="13" lengthAdjust="spacing" textLength="203.0171" x="294.0046" y="1537.644">Orientar formalmente o perito (SEI)</text><rect fill="none" height="164.3472" style="stroke:#000000;stroke-width:1.5;" width="571.1167" x="81.3983" y="1600.7974"/><path d="M189.2186,1600.7974 L189.2186,1612.1958 L179.2186,1622.1958 L81.3983,1622.1958" fill="none" style="stroke:#000000;stroke-width:1.5;"/><text fill="#000000" font-family="Arial" font-size="16" lengthAdjust="spacing" textLength="97.8203" x="84.3983" y="1616.8052">Perito M&#233;dico</text><polygon fill="#FFFFFF" points="333.8076,1642.1958,457.2188,1642.1958,469.2188,1654.1958,457.2188,1666.1958,333.8076,1666.1958,321.8076,1654.1958,333.8076,1642.1958" style="stroke:#000000;stroke-width:0.5;"/><text fill="#000000" font-family="Arial" font-size="13" lengthAdjust="spacing" textLength="123.4111" x="333.8076" y="1658.9153">"Aceita orienta&#231;&#245;es?"</text><text fill="#000000" font-family="Arial" font-size="16" lengthAdjust="spacing" textLength="27.5547" x="294.2529" y="1650.8052">Sim</text><text fill="#000000" font-family="Arial" font-size="16" lengthAdjust="spacing" textLength="29.3516" x="469.2188" y="1650.8052">N&#227;o</text><rect fill="#FFFFFF" height="34.9487" rx="12.5" ry="12.5" style="stroke:#000000;stroke-width:0.5;" width="312.6714" x="101.3983" y="1676.1958"/><text fill="#000000" font-family="Arial" font-size="13" lengthAdjust="spacing" textLength="292.6714" x="111.3983" y="1698.3896">Restabelecimento da compet&#234;ncia e arquivamento</text><ellipse cx="257.734" cy="1742.1445" fill="none" rx="11" ry="11" style="stroke:#222222;stroke-width:1;"/><ellipse cx="257.734" cy="1742.1445" fill="#222222" rx="6" ry="6" style="stroke:#222222;stroke-width:1;"/><rect fill="#FFFFFF" height="34.9487" rx="12.5" ry="12.5" style="stroke:#000000;stroke-width:0.5;" width="198.4453" x="434.0697" y="1676.1958"/><text fill="#000000" font-family="Arial" font-size="13" lengthAdjust="spacing" textLength="178.4453" x="444.0697" y="1698.3896">DRPMF registra recusa no SEI</text><rect fill="none" height="88.3472" style="stroke:#000000;stroke-width:1.5;" width="409.7065" x="190.6599" y="1775.1445"/><path d="M425.6208,1775.1445 L425.6208,1786.543 L415.6208,1796.543 L190.6599,1796.543" fill="none" style="stroke:#000000;stroke-width:1.5;"/><text fill="#000000" font-family="Arial" font-size="16" lengthAdjust="spacing" textLength="224.9609" x="193.6599" y="1791.1523">CGACDC (Coordena&#231;&#227;o-Geral)</text><rect fill="#FFFFFF" height="34.9487" rx="12.5" ry="12.5" style="stroke:#000000;stroke-width:0.5;" width="389.7065" x="200.6599" y="1816.543"/><text fill="#000000" font-family="Arial" font-size="13" lengthAdjust="spacing" textLength="369.7065" x="210.6599" y="1838.7368">Determinar respeito aos preceitos da ferramenta (2&#170; notifica&#231;&#227;o)</text><rect fill="none" height="88.3472" style="stroke:#000000;stroke-width:1.5;" width="456.1523" x="167.437" y="1901.8901"/><path d="M234.3198,1901.8901 L234.3198,1913.2886 L224.3198,1923.2886 L167.437,1923.2886" fill="none" style="stroke:#000000;stroke-width:1.5;"/><text fill="#000000" font-family="Arial" font-size="16" lengthAdjust="spacing" textLength="56.8828" x="170.437" y="1917.8979">DRPMF</text><rect fill="#FFFFFF" height="34.9487" rx="12.5" ry="12.5" style="stroke:#000000;stroke-width:0.5;" width="436.1523" x="177.437" y="1943.2886"/><text fill="#000000" font-family="Arial" font-size="13" lengthAdjust="spacing" textLength="416.1523" x="187.437" y="1965.4824">Determina formalmente o perito a seguir as regras do ATESTMED (SEI)</text><rect fill="none" height="164.3472" style="stroke:#000000;stroke-width:1.5;" width="571.1167" x="81.3983" y="2028.6357"/><path d="M189.2186,2028.6357 L189.2186,2040.0342 L179.2186,2050.0342 L81.3983,2050.0342" fill="none" style="stroke:#000000;stroke-width:1.5;"/><text fill="#000000" font-family="Arial" font-size="16" lengthAdjust="spacing" textLength="97.8203" x="84.3983" y="2044.6436">Perito M&#233;dico</text><polygon fill="#FFFFFF" points="328.0281,2070.0342,462.9983,2070.0342,474.9983,2082.0342,462.9983,2094.0342,328.0281,2094.0342,316.0281,2082.0342,328.0281,2070.0342" style="stroke:#000000;stroke-width:0.5;"/><text fill="#000000" font-family="Arial" font-size="13" lengthAdjust="spacing" textLength="134.9702" x="328.0281" y="2086.7537">"Aceita determina&#231;&#227;o?"</text><text fill="#000000" font-family="Arial" font-size="16" lengthAdjust="spacing" textLength="27.5547" x="288.4734" y="2078.6436">Sim</text><text fill="#000000" font-family="Arial" font-size="16" lengthAdjust="spacing" textLength="29.3516" x="474.9983" y="2078.6436">N&#227;o</text><rect fill="#FFFFFF" height="34.9487" rx="12.5" ry="12.5" style="stroke:#000000;stroke-width:0.5;" width="312.6714" x="101.3983" y="2104.0342"/><text fill="#000000" font-family="Arial" font-size="13" lengthAdjust="spacing" textLength="292.6714" x="111.3983" y="2126.228">Restabelecimento da compet&#234;ncia e arquivamento</text><ellipse cx="257.734" cy="2169.9829" fill="none" rx="11" ry="11" style="stroke:#222222;stroke-width:1;"/><ellipse cx="257.734" cy="2169.9829" fill="#222222" rx="6" ry="6" style="stroke:#222222;stroke-width:1;"/><rect fill="#FFFFFF" height="34.9487" rx="12.5" ry="12.5" style="stroke:#000000;stroke-width:0.5;" width="198.4453" x="434.0697" y="2104.0342"/><text fill="#000000" font-family="Arial" font-size="13" lengthAdjust="spacing" textLength="178.4453" x="444.0697" y="2126.228">DRPMF registra recusa no SEI</text><rect fill="none" height="130.3472" style="stroke:#000000;stroke-width:1.5;" width="396.2051" x="197.4106" y="2202.9829"/><path d="M432.3716,2202.9829 L432.3716,2214.3813 L422.3716,2224.3813 L197.4106,2224.3813" fill="none" style="stroke:#000000;stroke-width:1.5;"/><text fill="#000000" font-family="Arial" font-size="16" lengthAdjust="spacing" textLength="224.9609" x="200.4106" y="2218.9907">CGACDC (Coordena&#231;&#227;o-Geral)</text><rect fill="#FFFFFF" height="34.9487" rx="12.5" ry="12.5" style="stroke:#000000;stroke-width:0.5;" width="376.2051" x="207.4106" y="2244.3813"/><text fill="#000000" font-family="Arial" font-size="13" lengthAdjust="spacing" textLength="69.3672" x="217.4106" y="2266.5752">Encaminhar</text><text fill="#000000" font-family="Arial" font-size="13" font-weight="bold" lengthAdjust="spacing" textLength="92.4727" x="290.3896" y="2266.5752">&#224; Corregedoria</text><text fill="#000000" font-family="Arial" font-size="13" lengthAdjust="spacing" textLength="187.1416" x="386.4741" y="2266.5752">(SEI) para provid&#234;ncias cab&#237;veis</text><ellipse cx="395.5132" cy="2310.3301" fill="none" rx="11" ry="11" style="stroke:#222222;stroke-width:1;"/><ellipse cx="395.5132" cy="2310.3301" fill="#222222" rx="6" ry="6" style="stroke:#222222;stroke-width:1;"/><line style="stroke:#181818;stroke-width:1;" x1="395.5132" x2="395.5132" y1="150.4458" y2="170.4458"/><polygon fill="#181818" points="391.5132,160.4458,395.5132,170.4458,399.5132,160.4458,395.5132,164.4458" style="stroke:#181818;stroke-width:1;"/><line style="stroke:#181818;stroke-width:1;" x1="395.5132" x2="395.5132" y1="67.0986" y2="115.4971"/><polygon fill="#181818" points="391.5132,105.4971,395.5132,115.4971,399.5132,105.4971,395.5132,109.4971" style="stroke:#181818;stroke-width:1;"/><line style="stroke:#181818;stroke-width:1;" x1="395.5132" x2="395.5132" y1="300.7417" y2="320.7417"/><polygon fill="#181818" points="391.5132,310.7417,395.5132,320.7417,399.5132,310.7417,395.5132,314.7417" style="stroke:#181818;stroke-width:1;"/><line style="stroke:#181818;stroke-width:1;" x1="395.5132" x2="395.5132" y1="355.6904" y2="375.6904"/><polygon fill="#181818" points="391.5132,365.6904,395.5132,375.6904,399.5132,365.6904,395.5132,369.6904" style="stroke:#181818;stroke-width:1;"/><line style="stroke:#181818;stroke-width:1;" x1="395.5132" x2="395.5132" y1="410.6392" y2="458.4282"/><polygon fill="#181818" points="391.5132,448.4282,395.5132,458.4282,399.5132,448.4282,395.5132,452.4282" style="stroke:#181818;stroke-width:1;"/><text fill="#000000" font-family="Arial" font-size="16" lengthAdjust="spacing" textLength="83.5938" x="399.5132" y="437.5376">ListaPeritos</text><line style="stroke:#181818;stroke-width:1;" x1="395.5132" x2="395.5132" y1="493.377" y2="513.377"/><polygon fill="#181818" points="391.5132,503.377,395.5132,513.377,399.5132,503.377,395.5132,507.377" style="stroke:#181818;stroke-width:1;"/><line style="stroke:#181818;stroke-width:1;" x1="395.5132" x2="395.5132" y1="205.3945" y2="265.793"/><polygon fill="#181818" points="391.5132,255.793,395.5132,265.793,399.5132,255.793,395.5132,259.793" style="stroke:#181818;stroke-width:1;"/><line style="stroke:#181818;stroke-width:1;" x1="395.5132" x2="395.5132" y1="643.6729" y2="663.6729"/><polygon fill="#181818" points="391.5132,653.6729,395.5132,663.6729,399.5132,653.6729,395.5132,657.6729" style="stroke:#181818;stroke-width:1;"/><line style="stroke:#181818;stroke-width:1;" x1="395.5132" x2="395.5132" y1="548.3257" y2="608.7241"/><polygon fill="#181818" points="391.5132,598.7241,395.5132,608.7241,399.5132,598.7241,395.5132,602.7241" style="stroke:#181818;stroke-width:1;"/><line style="stroke:#181818;stroke-width:1;" x1="395.5132" x2="395.5132" y1="775.4185" y2="790.4185"/><polygon fill="#181818" points="391.5132,780.4185,395.5132,790.4185,399.5132,780.4185,395.5132,784.4185" style="stroke:#181818;stroke-width:1;"/><line style="stroke:#181818;stroke-width:1;" x1="180.0593" x2="180.0593" y1="914.3159" y2="934.3159"/><polygon fill="#181818" points="176.0593,924.3159,180.0593,934.3159,184.0593,924.3159,180.0593,928.3159" style="stroke:#181818;stroke-width:1;"/><line style="stroke:#181818;stroke-width:1;" x1="610.967" x2="610.967" y1="914.3159" y2="934.3159"/><polygon fill="#181818" points="606.967,924.3159,610.967,934.3159,614.967,924.3159,610.967,928.3159" style="stroke:#181818;stroke-width:1;"/><line style="stroke:#181818;stroke-width:1;" x1="271.604" x2="180.0593" y1="857.3672" y2="857.3672"/><line style="stroke:#181818;stroke-width:1;" x1="180.0593" x2="180.0593" y1="857.3672" y2="879.3672"/><polygon fill="#181818" points="176.0593,869.3672,180.0593,879.3672,184.0593,869.3672,180.0593,873.3672" style="stroke:#181818;stroke-width:1;"/><line style="stroke:#181818;stroke-width:1;" x1="519.4224" x2="610.967" y1="857.3672" y2="857.3672"/><line style="stroke:#181818;stroke-width:1;" x1="610.967" x2="610.967" y1="857.3672" y2="879.3672"/><polygon fill="#181818" points="606.967,869.3672,610.967,879.3672,614.967,869.3672,610.967,873.3672" style="stroke:#181818;stroke-width:1;"/><line style="stroke:#181818;stroke-width:1;" x1="610.967" x2="610.967" y1="969.2646" y2="974.2646"/><line style="stroke:#181818;stroke-width:1;" x1="610.967" x2="395.5132" y1="974.2646" y2="974.2646"/><line style="stroke:#181818;stroke-width:1;" x1="395.5132" x2="395.5132" y1="974.2646" y2="1017.6631"/><line style="stroke:#181818;stroke-width:1;" x1="395.5132" x2="395.5132" y1="825.3672" y2="845.3672"/><polygon fill="#181818" points="391.5132,835.3672,395.5132,845.3672,399.5132,835.3672,395.5132,839.3672" style="stroke:#181818;stroke-width:1;"/><line style="stroke:#181818;stroke-width:1;" x1="395.5132" x2="395.5132" y1="698.6216" y2="775.4185"/><text fill="#000000" font-family="Arial" font-size="16" lengthAdjust="spacing" textLength="203.6016" x="399.5132" y="737.52">CGACDC_VerificaPreliminar</text><line style="stroke:#181818;stroke-width:1;" x1="395.5132" x2="395.5132" y1="1017.6631" y2="1032.6631"/><polygon fill="#181818" points="391.5132,1022.6631,395.5132,1032.6631,399.5132,1022.6631,395.5132,1026.6631" style="stroke:#181818;stroke-width:1;"/><line style="stroke:#181818;stroke-width:1;" x1="395.5132" x2="395.5132" y1="1144.4087" y2="1159.4087"/><polygon fill="#181818" points="391.5132,1149.4087,395.5132,1159.4087,399.5132,1149.4087,395.5132,1153.4087" style="stroke:#181818;stroke-width:1;"/><line style="stroke:#181818;stroke-width:1;" x1="395.5132" x2="395.5132" y1="1067.6118" y2="1144.4087"/><text fill="#000000" font-family="Arial" font-size="16" lengthAdjust="spacing" textLength="88.0391" x="399.5132" y="1106.5103">Perito_Justif</text><line style="stroke:#181818;stroke-width:1;" x1="395.5132" x2="395.5132" y1="1271.1543" y2="1286.1543"/><polygon fill="#181818" points="391.5132,1276.1543,395.5132,1286.1543,399.5132,1276.1543,395.5132,1280.1543" style="stroke:#181818;stroke-width:1;"/><line style="stroke:#181818;stroke-width:1;" x1="186.9291" x2="186.9291" y1="1410.0518" y2="1430.0518"/><polygon fill="#181818" points="182.9291,1420.0518,186.9291,1430.0518,190.9291,1420.0518,186.9291,1424.0518" style="stroke:#181818;stroke-width:1;"/><line style="stroke:#181818;stroke-width:1;" x1="261.8445" x2="186.9291" y1="1353.103" y2="1353.103"/><line style="stroke:#181818;stroke-width:1;" x1="186.9291" x2="186.9291" y1="1353.103" y2="1375.103"/><polygon fill="#181818" points="182.9291,1365.103,186.9291,1375.103,190.9291,1365.103,186.9291,1369.103" style="stroke:#181818;stroke-width:1;"/><line style="stroke:#181818;stroke-width:1;" x1="529.1819" x2="604.0973" y1="1353.103" y2="1353.103"/><line style="stroke:#181818;stroke-width:1;" x1="604.0973" x2="604.0973" y1="1353.103" y2="1375.103"/><polygon fill="#181818" points="600.0973,1365.103,604.0973,1375.103,608.0973,1365.103,604.0973,1369.103" style="stroke:#181818;stroke-width:1;"/><line style="stroke:#181818;stroke-width:1;" x1="604.0973" x2="604.0973" y1="1410.0518" y2="1457.0518"/><line style="stroke:#181818;stroke-width:1;" x1="604.0973" x2="395.5132" y1="1457.0518" y2="1457.0518"/><line style="stroke:#181818;stroke-width:1;" x1="395.5132" x2="395.5132" y1="1457.0518" y2="1500.4502"/><line style="stroke:#181818;stroke-width:1;" x1="395.5132" x2="395.5132" y1="1321.103" y2="1341.103"/><polygon fill="#181818" points="391.5132,1331.103,395.5132,1341.103,399.5132,1331.103,395.5132,1335.103" style="stroke:#181818;stroke-width:1;"/><line style="stroke:#181818;stroke-width:1;" x1="395.5132" x2="395.5132" y1="1194.3574" y2="1271.1543"/><text fill="#000000" font-family="Arial" font-size="16" lengthAdjust="spacing" textLength="159.1563" x="399.5132" y="1233.2559">CGACDC_AvaliaJustif</text><line style="stroke:#181818;stroke-width:1;" x1="395.5132" x2="395.5132" y1="1500.4502" y2="1515.4502"/><polygon fill="#181818" points="391.5132,1505.4502,395.5132,1515.4502,399.5132,1505.4502,395.5132,1509.4502" style="stroke:#181818;stroke-width:1;"/><line style="stroke:#181818;stroke-width:1;" x1="257.734" x2="257.734" y1="1711.1445" y2="1731.1445"/><polygon fill="#181818" points="253.734,1721.1445,257.734,1731.1445,261.734,1721.1445,257.734,1725.1445" style="stroke:#181818;stroke-width:1;"/><line style="stroke:#181818;stroke-width:1;" x1="321.8076" x2="257.734" y1="1654.1958" y2="1654.1958"/><line style="stroke:#181818;stroke-width:1;" x1="257.734" x2="257.734" y1="1654.1958" y2="1676.1958"/><polygon fill="#181818" points="253.734,1666.1958,257.734,1676.1958,261.734,1666.1958,257.734,1670.1958" style="stroke:#181818;stroke-width:1;"/><line style="stroke:#181818;stroke-width:1;" x1="469.2188" x2="533.2924" y1="1654.1958" y2="1654.1958"/><line style="stroke:#181818;stroke-width:1;" x1="533.2924" x2="533.2924" y1="1654.1958" y2="1676.1958"/><polygon fill="#181818" points="529.2924,1666.1958,533.2924,1676.1958,537.2924,1666.1958,533.2924,1670.1958" style="stroke:#181818;stroke-width:1;"/><line style="stroke:#181818;stroke-width:1;" x1="533.2924" x2="533.2924" y1="1711.1445" y2="1758.1445"/><line style="stroke:#181818;stroke-width:1;" x1="533.2924" x2="395.5132" y1="1758.1445" y2="1758.1445"/><line style="stroke:#181818;stroke-width:1;" x1="395.5132" x2="395.5132" y1="1758.1445" y2="1801.543"/><line style="stroke:#181818;stroke-width:1;" x1="395.5132" x2="395.5132" y1="1627.1958" y2="1642.1958"/><polygon fill="#181818" points="391.5132,1632.1958,395.5132,1642.1958,399.5132,1632.1958,395.5132,1636.1958" style="stroke:#181818;stroke-width:1;"/><line style="stroke:#181818;stroke-width:1;" x1="395.5132" x2="395.5132" y1="1550.3989" y2="1627.1958"/><text fill="#000000" font-family="Arial" font-size="16" lengthAdjust="spacing" textLength="167.2188" x="399.5132" y="1589.2974">Perito_1o_Comunicado</text><line style="stroke:#181818;stroke-width:1;" x1="395.5132" x2="395.5132" y1="1801.543" y2="1816.543"/><polygon fill="#181818" points="391.5132,1806.543,395.5132,1816.543,399.5132,1806.543,395.5132,1810.543" style="stroke:#181818;stroke-width:1;"/><line style="stroke:#181818;stroke-width:1;" x1="395.5132" x2="395.5132" y1="1928.2886" y2="1943.2886"/><polygon fill="#181818" points="391.5132,1933.2886,395.5132,1943.2886,399.5132,1933.2886,395.5132,1937.2886" style="stroke:#181818;stroke-width:1;"/><line style="stroke:#181818;stroke-width:1;" x1="395.5132" x2="395.5132" y1="1851.4917" y2="1928.2886"/><text fill="#000000" font-family="Arial" font-size="16" lengthAdjust="spacing" textLength="167.2188" x="399.5132" y="1890.3901">Perito_2o_Comunicado</text><line style="stroke:#181818;stroke-width:1;" x1="257.734" x2="257.734" y1="2138.9829" y2="2158.9829"/><polygon fill="#181818" points="253.734,2148.9829,257.734,2158.9829,261.734,2148.9829,257.734,2152.9829" style="stroke:#181818;stroke-width:1;"/><line style="stroke:#181818;stroke-width:1;" x1="316.0281" x2="257.734" y1="2082.0342" y2="2082.0342"/><line style="stroke:#181818;stroke-width:1;" x1="257.734" x2="257.734" y1="2082.0342" y2="2104.0342"/><polygon fill="#181818" points="253.734,2094.0342,257.734,2104.0342,261.734,2094.0342,257.734,2098.0342" style="stroke:#181818;stroke-width:1;"/><line style="stroke:#181818;stroke-width:1;" x1="474.9983" x2="533.2924" y1="2082.0342" y2="2082.0342"/><line style="stroke:#181818;stroke-width:1;" x1="533.2924" x2="533.2924" y1="2082.0342" y2="2104.0342"/><polygon fill="#181818" points="529.2924,2094.0342,533.2924,2104.0342,537.2924,2094.0342,533.2924,2098.0342" style="stroke:#181818;stroke-width:1;"/><line style="stroke:#181818;stroke-width:1;" x1="533.2924" x2="533.2924" y1="2138.9829" y2="2185.9829"/><line style="stroke:#181818;stroke-width:1;" x1="533.2924" x2="395.5132" y1="2185.9829" y2="2185.9829"/><line style="stroke:#181818;stroke-width:1;" x1="395.5132" x2="395.5132" y1="2185.9829" y2="2229.3813"/><line style="stroke:#181818;stroke-width:1;" x1="395.5132" x2="395.5132" y1="2055.0342" y2="2070.0342"/><polygon fill="#181818" points="391.5132,2060.0342,395.5132,2070.0342,399.5132,2060.0342,395.5132,2064.0342" style="stroke:#181818;stroke-width:1;"/><line style="stroke:#181818;stroke-width:1;" x1="395.5132" x2="395.5132" y1="1978.2373" y2="2055.0342"/><text fill="#000000" font-family="Arial" font-size="16" lengthAdjust="spacing" textLength="116.4766" x="399.5132" y="2017.1357">Determina_PMF</text><line style="stroke:#181818;stroke-width:1;" x1="395.5132" x2="395.5132" y1="2229.3813" y2="2244.3813"/><polygon fill="#181818" points="391.5132,2234.3813,395.5132,2244.3813,399.5132,2234.3813,395.5132,2238.3813" style="stroke:#181818;stroke-width:1;"/><line style="stroke:#181818;stroke-width:1;" x1="395.5132" x2="395.5132" y1="2279.3301" y2="2299.3301"/><polygon fill="#181818" points="391.5132,2289.3301,395.5132,2299.3301,399.5132,2289.3301,395.5132,2293.3301" style="stroke:#181818;stroke-width:1;"/><g class="legend" data-source-line="130"><rect fill="none" height="124.6411" rx="7.5" ry="7.5" style="stroke:#000000;stroke-width:1;" width="263.0493" x="614.9529" y="2344.3301"/><text fill="#000000" font-family="Arial" font-size="13" font-weight="bold" lengthAdjust="spacing" textLength="53.4536" x="619.9529" y="2361.5239">Legenda</text><line style="stroke:#000000;stroke-width:1;" x1="614.9529" x2="878.0022" y1="2369.2788" y2="2369.2788"/><text fill="#000000" font-family="Arial" font-size="13" lengthAdjust="spacing" textLength="137.1538" x="619.9529" y="2386.4727">&#9679;  In&#237;cio/Fim (start/stop)</text><text fill="#000000" font-family="Arial" font-size="13" lengthAdjust="spacing" textLength="106.5581" x="619.9529" y="2401.4214">&#9671; Decis&#227;o (if/else)</text><text fill="#000000" font-family="Arial" font-size="13" lengthAdjust="spacing" textLength="110.9126" x="619.9529" y="2416.3701">&#9744;  Atividade (a&#231;&#227;o)</text><text fill="#000000" font-family="Arial" font-size="13" lengthAdjust="spacing" textLength="82.0054" x="619.9529" y="2431.3188">&#9998;  Nota (note)</text><text fill="#000000" font-family="Arial" font-size="13" lengthAdjust="spacing" textLength="85.6045" x="619.9529" y="2446.2676">&#10140;  Fluxo (seta)</text><text fill="#000000" font-family="Arial" font-size="13" lengthAdjust="spacing" textLength="253.0493" x="619.9529" y="2461.2163">Moldura/&#8220;piscina&#8221; = partition "CGACDC (...)"</text></g><!--SRC=[pLVFRnj553wpVyLJBgmZfIP5ua1BaMixLL0J8Zk2OpJUVRQ7hdUsCxEc55NgZHjmWqD0hJYWLEe9SUcH_K_ob_3DZDTUEpQe0YHoIJBpVdpllU-zUMiUoRmGMimevR4eCtkaSdigPamTBKKMcMttG_cKwV23nkLCvIgPQWKzgqjkt8Z4ohcqNz7N4T5zfLFMNPKfJVSpaJp2sShW-qu2XnEjoZmDKfzFfMMS3wtGTbsnNylK1pqfW2FTPQA-te9X4AHrpfeEtukUDV1tj5PVdazbyYXdO-Wmij9cJ4TP-KGX9tIYScaL93ctYZhd_U7vIRz71_I0ZQr-KNHMlHbbCX5HP5mCKGIxi25LJdjdIbkHqTd9qPxFpuUTIIbqAZG9MufCFXNLhyv6ggXtdt8OMohSSUBz9rRN8i8GxAD8PbFmsPhFxeDEjzUbkAjS8lAWVl20jSXQ2nHdMYK8Li1egeoBiZIAc1ALZvMUIHopzzyfN6IKQ6chAos3h9OcST8JcAJz_G5dmbQ_uTPT3jpb_Zx57Olyp3Yb7eyvHqLQ8QAC9qm5moAi9Mf6XRAS9-0YpKJfWSJdgg1JQjCmKPhnkp-NQVNA2HblvU0UFPJ8zbam4w2MoAXkYv6MceeGeFAf6lQFAIwT8xrmtFAEjm0daVCJv2H0pUSIbSghDpFM8VJQBbKl37K7oBwpL30YGBWtAk45rWi1hnDShcenu8H7lCEDgqwTAwD6P4hXcUDDtGdgdaOWL5wzpAHnofp9cSnnvjHbdbQl4ncoXCG5Ubny1gjZrFPiAVtsFCh4YBFT1Xsy-bIlSFZSZmIGvc8xQX5Iwm3BCSLxnmtLV2prJ8IyP6BX_EEz5jafvnIV0cCBUd3TGrLqi2ZqurBE5osCNblcDx3ZZbSmLXNuWpEWYOTojZ0pO2irREpl0-8S5XQ662GNY-e7Rgw6WtFXgqOn67RbO2TPQK8RBsDk1Rze2J5IpaNAfX395CgOJ33UgmbMvZw5Iwku11W353ZzeZJMvzWXCy4cwkoLBpxnb-uGFIZ76oNsCirQDfLS-RfBtsukYCm7li8HSEw2WYpsZ-j-3QswnBEE8rpIINMLoaGr0QsfXOcqozkgbYkMT-Re3h7TwLloksdA0q4FI-EhDcQCKYPUJQbwfABQOzRXyH1BFWzGPuNnvTa3WhoUmuthYgRqYjDDBa8Bc3YH2ovlC93NgBw5rut-62hCTkaIMRrOKErnoU2vqjANkL5oDz172d4LkdffaNBJTk5XF6jsuxJPHwjYV-eDYKIe9G7V-Ji6tb1rkLxyjuE5MsXsg2vgwhfX_fPiMzEkYzP96CcYa1n7bj_P_ESr2cNHU38C5W7yaPIWsaQs5mGTyWHBZZXLeIcQMVzdpBzfE5eVh-Z8WlrSScCP8Da_M6laf_Zs7w-0FDZm7ZTgTlklQhQB9xStIhM2jPqhWWoYmOO0BYEjshLgOwjhKcbfwMBBahMRGsjg6-H9wpiV__-AFLtNoXDEmM_nB_6cQJBiKub0y5F_c6BcDE_TW76v3qyAtkV6B4t4o8r8wTys7ojWlKknAfAmIH6I9ZEVAxTTWgkD_VwXFzd-pN13wiQdmwP4ysCc2iwm3q-cDhexkXT4nDtsw5vqW9_e-eVlY8vplxoqZ-ICOl-9q7P1j73x3TYIIByNn7BSTWN4yO_V4tNSHvLRmx51X6Q9hY-_9K8JefNGHaxmvqjQVAV4XgreHISgIqijsjVFBmkiio3QzVEVw2FQKiDRjswrzYB03K54Vm80]--></g></svg>